:SAMPLES-PER-SECOND 30
:FULLY-SPECIFIED
:DEGREES
458
root  70.718 38.6799 5.01204 171.331 72.8142 173.199
RightUpLeg  -10.4798 -9.62881 -2.23436
RightLeg  19.831 5.09782 2.07205
RightFoot  -5.05938 0.215747 -4.56929
RightToes  2.21189e-009 0 -3.6325e-017
Spine  15.7206 -2.84359 12.7985
Spine1  9.6454 2.04195 -13.4379
HEad  -102.724 19.0826 -62.2938
LeftShoulder1  -4.96035 9.89384 -65.6512
LeftArm  26.9517 -55.539 -25.6624
LeftForeArm  3.17554 -38.095 -8.59254
LeftHand  -0.584814 -1.44963 10.1036
RightShoulder  -1.17755 -6.67043 31.2386
RightArm  2.43229 5.73141 40.0972
RightForeArm  21.8622 73.2905 41.2177
RightHand  -1.48218 7.09205 -15.158
LeftUpLeg  -15.1522 1.58288 1.06685
LeftLeg  7.70508 -23.6618 -3.20228
LeftFoot  13.0423 1.63492 -7.9129
LeftToes  -3.01956e-010 3.07132e-011 1.04116e-011
459
root  70.1117 38.6877 5.40731 172.405 70.5035 172.905
RightUpLeg  -12.296 -11.8589 -2.46854
RightLeg  18.8958 4.61006 2.55169
RightFoot  -4.6331 0.188178 -3.74167
RightToes  2.21189e-009 0 -3.6325e-017
Spine  15.0014 -2.62074 13.3729
Spine1  11.354 2.5744 -14.0753
HEad  -93.0038 20.8956 -66.7096
LeftShoulder1  -4.33744 8.84931 -68.2228
LeftArm  30.5168 -49.7881 -23.6972
LeftForeArm  2.18914 -31.5469 -6.49506
LeftHand  -0.533513 -0.820316 10.1076
RightShoulder  -1.41456 -7.1041 32.7742
RightArm  5.19736 4.12138 41.3554
RightForeArm  2.48902 63.7927 23.5961
RightHand  -1.01644 5.93889 -10.7253
LeftUpLeg  -15.4399 1.75368 0.404618
LeftLeg  2.61758 -22.2959 -1.04091
LeftFoot  13.5807 2.74102 -12.7823
LeftToes  -3.01956e-010 3.07132e-011 1.04116e-011
460
root  69.6286 38.7809 5.75017 174.208 66.9018 173.799
RightUpLeg  -12.4866 -14.194 -3.13471
RightLeg  16.5883 2.90054 3.44002
RightFoot  -3.7217 0.187193 -3.18788
RightToes  2.21189e-009 0 -3.6325e-017
Spine  13.1019 -2.64409 14.1485
Spine1  14.0425 2.86218 -14.503
HEad  -83.063 23.1357 -67.5235
LeftShoulder1  -3.73093 7.88235 -70.9129
LeftArm  30.9021 -47.8858 -24.1627
LeftForeArm  5.35013 -19.8945 -6.672
LeftHand  -0.423892 0.364281 9.81511
RightShoulder  -1.48932 -7.22237 33.5313
RightArm  7.30762 3.16534 43.7057
RightForeArm  -5.92336 53.1103 15.535
RightHand  -1.12095 6.44447 -11.2825
LeftUpLeg  -15.8292 1.59509 -0.301423
LeftLeg  1.11553 -18.0663 -0.587119
LeftFoot  11.3991 2.71274 -13.7097
LeftToes  -3.01956e-010 3.07132e-011 1.04116e-011
461
root  68.921 38.9155 6.18415 174.618 63.5935 173.682
RightUpLeg  -12.5099 -13.3019 -3.88214
RightLeg  13.9144 -1.46518 3.03516
RightFoot  -2.22282 0.191295 -2.58715
RightToes  2.21189e-009 0 -3.6325e-017
Spine  13.9095 -2.74142 14.3418
Spine1  14.0363 3.06405 -14.8441
HEad  -90.4376 45.1665 -92.8435
LeftShoulder1  -3.76811 7.87522 -71.6143
LeftArm  6.3121 -47.6761 -25.0627
LeftForeArm  30.7984 -2.49645 -13.9761
LeftHand  -0.290351 1.68553 8.96067
RightShoulder  -1.46358 -7.17751 33.317
RightArm  11.5064 3.92016 45.9575
RightForeArm  -13.3282 41.0263 10.5039
RightHand  -1.21255 7.07402 -11.5935
LeftUpLeg  -16.1899 1.5252 -0.967501
LeftLeg  3.40061 -13.9253 -1.25448
LeftFoot  6.13554 1.56368 -10.3743
LeftToes  -3.01956e-010 3.07132e-011 1.04116e-011
462
root  68.3605 39.0197 6.59942 175.202 59.074 173.085
RightUpLeg  -12.9927 -12.9006 -5.16657
RightLeg  12.0117 -6.56578 2.77127
RightFoot  -1.89431 0.0944622 -1.29513
RightToes  2.21189e-009 0 -3.6325e-017
Spine  13.0814 -2.63395 14.4012
Spine1  14.0852 3.08617 -14.7749
HEad  31.7222 70.9024 -5.23085
LeftShoulder1  -4.00812 8.17113 -71.408
LeftArm  -6.87865 -48.3703 -26.738
LeftForeArm  42.2746 8.40197 -10.9647
LeftHand  -0.211634 2.47747 8.2429
RightShoulder  -1.43038 -7.14736 32.7472
RightArm  16.1762 4.25803 48.7606
RightForeArm  -18.5591 29.5804 7.27862
RightHand  -1.24057 7.29528 -11.6365
LeftUpLeg  -16.7922 0.217142 -2.16576
LeftLeg  7.2484 -8.52233 -1.00527
LeftFoot  2.32929 0.740947 -6.30071
LeftToes  -3.01956e-010 3.07132e-011 1.04116e-011
463
root  67.8805 39.0918 6.9658 174.961 54.4482 171.933
RightUpLeg  -13.2327 -13.9339 -6.99929
RightLeg  11.0127 -10.3423 2.81162
RightFoot  -1.97599 0.0126883 -0.310737
RightToes  2.21189e-009 0 -3.6325e-017
Spine  12.5426 -2.31304 13.9099
Spine1  13.78 3.26831 -14.7241
HEad  10.1001 74.0854 -18.4693
LeftShoulder1  -4.45495 8.80191 -71.3427
LeftArm  -20.8064 -48.1144 -28.2854
LeftForeArm  54.7164 5.80116 -2.52902
LeftHand  -0.140985 3.52388 7.06555
RightShoulder  -1.45374 -7.20771 32.8075
RightArm  21.3258 4.37137 50.368
RightForeArm  -21.9201 20.5143 6.15448
RightHand  -1.43472 8.58194 -12.2218
LeftUpLeg  -16.1385 -0.715983 -3.44222
LeftLeg  11.0627 -3.83371 -0.545211
LeftFoot  -0.909076 0.321429 -3.52226
LeftToes  -3.01956e-010 3.07132e-011 1.04116e-011
464
root  67.3676 39.1302 7.27102 174.022 50.2041 170.953
RightUpLeg  -12.5704 -15.3172 -9.03704
RightLeg  10.31 -12.9326 2.90212
RightFoot  -2.3237 -0.0868776 0.896968
RightToes  2.21189e-009 0 -3.6325e-017
Spine  12.8715 -1.85778 12.1588
Spine1  14.15 3.08197 -12.5175
HEad  0.618332 70.5926 -26.1939
LeftShoulder1  -3.38536 7.2807 -62.8346
LeftArm  -27.0618 -36.5828 -30.0395
LeftForeArm  51.025 4.00963 1.86746
LeftHand  0.0601641 7.86493 4.24869
RightShoulder  -1.2514 -6.76563 31.3718
RightArm  19.9231 4.48717 51.4875
RightForeArm  -17.453 13.8121 7.95192
RightHand  -1.24821 6.98686 -11.99
LeftUpLeg  -13.9181 -0.896575 -4.36967
LeftLeg  14.345 -1.66144 -0.167624
LeftFoot  -3.20826 0.218504 -2.84168
LeftToes  -3.01956e-010 3.07132e-011 1.04116e-011
465
root  66.9054 39.1102 7.58784 175.096 45.7421 171.48
RightUpLeg  -12.7887 -15.8485 -9.90107
RightLeg  9.93086 -16.9222 2.55169
RightFoot  -2.24353 -0.157436 1.78193
RightToes  2.21189e-009 0 -3.6325e-017
Spine  13.0772 -1.01153 7.60557
Spine1  13.0369 1.04975 -4.67862
HEad  0.198822 68.6441 -28.0642
LeftShoulder1  1.27547 0.737473 -31.5452
LeftArm  -5.29811 -0.169837 -46.8107
LeftForeArm  13.8675 1.79725 -7.37288
LeftHand  0.0437576 8.20361 3.2243
RightShoulder  -0.520616 -5.06132 27.1002
RightArm  16.2209 2.51056 52.5427
RightForeArm  -12.9064 10.3312 8.56403
RightHand  -1.34788 6.61723 -13.2529
LeftUpLeg  -12.0505 0.258065 -3.80549
LeftLeg  16.7263 -0.917285 0.0159208
LeftFoot  -5.0472 0.179202 -2.69331
LeftToes  -3.01956e-010 3.07132e-011 1.04116e-011
466
root  66.3942 39.0971 7.85497 176.276 41.4209 172.116
RightUpLeg  -12.8319 -16.4885 -10.7236
RightLeg  9.18813 -20.6829 2.46831
RightFoot  -2.07361 -0.25238 2.94006
RightToes  2.21189e-009 0 -3.6325e-017
Spine  12.8533 -0.703725 8.68547
Spine1  11.575 1.66162 -5.35224
HEad  -8.63153 64.0165 -32.2838
LeftShoulder1  0.75631 1.64697 -34.6364
LeftArm  -7.63138 0.22714 -42.1607
LeftForeArm  18.1184 -0.609634 -6.56043
LeftHand  -0.00200948 6.71593 2.8356
RightShoulder  -0.561948 -5.13799 27.5856
RightArm  14.5529 -0.26444 51.2879
RightForeArm  -9.53659 10.3367 7.90393
RightHand  -1.03034 5.10401 -11.677
LeftUpLeg  -10.083 1.81259 -2.64832
LeftLeg  18.2327 1.06681 0.711
LeftFoot  -5.81275 0.104559 -1.44528
LeftToes  -3.01956e-010 3.07132e-011 1.04116e-011
467
root  65.9207 39.0506 8.1099 177.515 36.4298 172.796
RightUpLeg  -12.8446 -17.6253 -11.8295
RightLeg  9.09796 -24.259 2.64778
RightFoot  -1.99555 -0.278875 3.24316
RightToes  2.21189e-009 0 -3.6325e-017
Spine  11.8002 -0.45986 8.27539
Spine1  10.9211 1.51281 -4.28678
HEad  -5.79272 60.6258 -28.0338
LeftShoulder1  0.636675 1.96542 -35.2499
LeftArm  -7.18047 2.60206 -38.9126
LeftForeArm  16.1996 -3.95658 -7.03348
LeftHand  0.0370217 6.5909 3.97958
RightShoulder  -0.646023 -5.34217 28.4394
RightArm  15.4355 -1.92886 49.0535
RightForeArm  -11.0749 11.4992 7.74609
RightHand  -1.15814 6.17359 -11.9055
LeftUpLeg  -8.01092 4.53944 -0.597324
LeftLeg  18.5696 1.35188 0.83018
LeftFoot  -6.62973 0.0696583 -0.732834
LeftToes  -3.01956e-010 3.07132e-011 1.04116e-011
468
root  65.3877 39.0405 8.31956 177.484 31.7948 173.329
RightUpLeg  -11.7128 -18.6142 -13.2446
RightLeg  9.18959 -27.4379 2.50753
RightFoot  -1.52925 -0.243417 2.72145
RightToes  2.21189e-009 0 -3.6325e-017
Spine  12.0218 -0.441029 7.68534
Spine1  10.102 1.2963 -3.44764
HEad  -0.521423 58.2827 -22.8279
LeftShoulder1  0.537511 2.20838 -35.3594
LeftArm  -6.78808 4.14658 -36.568
LeftForeArm  15.4297 -6.56623 -7.1545
LeftHand  -0.0293794 2.83435 0.12368
RightShoulder  -0.581408 -5.1723 28.073
RightArm  17.0558 -3.67009 47.6581
RightForeArm  -12.6983 13.3455 7.4564
RightHand  -1.15409 6.33751 -11.7068
LeftUpLeg  -4.54572 8.72801 1.95951
LeftLeg  17.2111 0.798404 0.610278
LeftFoot  -6.7046 0.034427 0.142767
LeftToes  -3.01956e-010 3.07132e-011 1.04116e-011
469
root  64.7691 39.0158 8.54624 178.042 26.1961 174.033
RightUpLeg  -10.7604 -19.8058 -14.7823
RightLeg  9.22125 -31.3643 2.45709
RightFoot  -1.01538 -0.191935 2.03684
RightToes  2.21189e-009 0 -3.6325e-017
Spine  11.5902 -0.892581 6.77153
Spine1  9.66174 0.396595 -2.30684
HEad  -5.63927 54.7955 -25.7121
LeftShoulder1  0.450426 2.40747 -35.0523
LeftArm  -6.36006 5.40499 -35.3922
LeftForeArm  14.0153 -10.157 -6.98712
LeftHand  -0.031869 3.72696 0.885633
RightShoulder  -0.5142 -4.99014 27.7663
RightArm  18.1624 -4.41414 46.3962
RightForeArm  -13.0689 14.9193 7.01169
RightHand  -1.10185 5.82008 -11.687
LeftUpLeg  -2.47758 13.2349 4.83124
LeftLeg  15.7899 0.942673 0.560147
LeftFoot  -6.58088 0.0282234 0.28784
LeftToes  -3.01956e-010 3.07132e-011 1.04116e-011
